HIERARCHY
ROOT Hips
{
  OFFSET -102.467 93.6631 130.069
  CHANNELS 6 Xposition Yposition Zposition Zrotation Xrotation Yrotation
  JOINT LeftUpLeg
  {
    OFFSET 8.64259 1.95398 -2.38835
    CHANNELS 3 Zrotation Xrotation Yrotation
    JOINT LeftLeg
    {
      OFFSET 43.7702 0 0
      CHANNELS 3 Zrotation Xrotation Yrotation
      JOINT LeftFoot
      {
        OFFSET 40.6238 0 0
        CHANNELS 3 Zrotation Xrotation Yrotation
        JOINT LeftToeBase
        {
          OFFSET 12.7242 0 0
          CHANNELS 3 Zrotation Xrotation Yrotation
          End Site
          {
            OFFSET 0 0 0
          }
        }
      }
    }
  }
  JOINT RightUpLeg
  {
    OFFSET -8.2249 1.95398 -2.59336
    CHANNELS 3 Zrotation Xrotation Yrotation
    JOINT RightLeg
    {
      OFFSET 43.5653 0 0
      CHANNELS 3 Zrotation Xrotation Yrotation
      JOINT RightFoot
      {
        OFFSET 40.6238 0 0
        CHANNELS 3 Zrotation Xrotation Yrotation
        JOINT RightToeBase
        {
          OFFSET 12.7242 0 0
          CHANNELS 3 Zrotation Xrotation Yrotation
          End Site
          {
            OFFSET 0 0 0
          }
        }
      }
    }
  }
  JOINT Spine
  {
    OFFSET 0.165834 0.87714 6.61349
    CHANNELS 3 Zrotation Xrotation Yrotation
    JOINT Spine1
    {
      OFFSET 7.38963 1.71661e-005 0
      CHANNELS 3 Zrotation Xrotation Yrotation
      JOINT Spine2
      {
        OFFSET 11.9445 1.14441e-005 0
        CHANNELS 3 Zrotation Xrotation Yrotation
        JOINT Spine3
        {
          OFFSET 14.7254 4.19617e-005 0
          CHANNELS 3 Zrotation Xrotation Yrotation
          JOINT Spine4
          {
            OFFSET 10.9679 0 0
            CHANNELS 3 Zrotation Xrotation Yrotation
            JOINT RightShoulder
            {
              OFFSET 2.46616 -1.6653 3.69651
              CHANNELS 3 Zrotation Xrotation Yrotation
              JOINT RightArm
              {
                OFFSET 13.0012 0 0
                CHANNELS 3 Zrotation Xrotation Yrotation
                JOINT RightForeArm
                {
                  OFFSET 28.7848 1.52588e-005 0
                  CHANNELS 3 Zrotation Xrotation Yrotation
                  JOINT RightHand
                  {
                    OFFSET 26.5688 1.52588e-005 0
                    CHANNELS 3 Zrotation Xrotation Yrotation
                    End Site
                    {
                      OFFSET 0 0 0
                    }
                  }
                }
              }
            }
            JOINT LeftShoulder
            {
              OFFSET 2.38034 -1.29275 -3.7523
              CHANNELS 3 Zrotation Xrotation Yrotation
              JOINT LeftArm
              {
                OFFSET 16.3182 6.10351e-005 0
                CHANNELS 3 Zrotation Xrotation Yrotation
                JOINT LeftForeArm
                {
                  OFFSET 27.0901 0 0
                  CHANNELS 3 Zrotation Xrotation Yrotation
                  JOINT LeftHand
                  {
                    OFFSET 24.5451 1.52588e-005 0
                    CHANNELS 3 Zrotation Xrotation Yrotation
                    End Site
                    {
                      OFFSET 0 0 0
                    }
                  }
                }
              }
            }
            JOINT Neck
            {
              OFFSET 5.0226 -0.0266342 0
              CHANNELS 3 Zrotation Xrotation Yrotation
              JOINT Head
              {
                OFFSET 6.69363 2.86102e-005 0
                CHANNELS 3 Zrotation Xrotation Yrotation
                End Site
                {
                  OFFSET 0 0 0
                }
              }
            }
          }
        }
      }
    }
  }
}
MOTION
Frames:	18
Frame Time:	0.0416667
-58.0924 99.4452 -18.8207 118.449 -84.161 119.993 -176.144 -0.295949 88.1571 -10.9335 16.6957 1.99157 60.5451 4.94733 10.751 33.0075 -0.681796 -1.85549 177.2 4.73479 92.3815 -19.9656 -0.781614 -0.416048 65.9215 6.33876 16.438 17.8819 2.9125 6.03824 -0.0667006 6.99193 -90.2079 12.8895 -0.232015 -0.387623 1.21849 -0.24885 -0.377036 -21.3163 -0.104789 -0.449062 -1.30362 -0.104791 -0.449055 100.641 -55.3268 -84.401 29.5654 -7.29314 -6.6549 -2.04757 -8.94891 -13.3418 -12.4406 -0.941959 3.72586 -84.9883 -51.2046 86.1733 -27.9102 11.272 -17.2718 -3.17233 31.5091 -2.09644 -1.54764 -0.101652 -4.33855 3.376 0.117377 -5.58748 -19.9786 0.336669 5.18232 
-58.1476 99.4201 -18.8062 118.627 -84.1716 120.026 -176.334 -0.35797 87.9413 -10.885 16.9382 2.06894 60.2939 4.97548 11.2654 33.1408 -0.78468 -2.73313 177.267 4.64921 92.3013 -19.7225 -0.908576 -0.512171 65.3062 6.84314 17.1644 19.5816 2.39829 3.13729 -0.0683554 7.00871 -90.2145 12.8558 -0.238392 -0.400139 1.1848 -0.255773 -0.389264 -21.3499 -0.107123 -0.449062 -1.33724 -0.107118 -0.449055 100.549 -55.0523 -84.5426 29.5657 -7.30062 -6.64051 -1.88509 -8.05985 -13.3716 -12.0847 -0.824366 2.84028 -85.2421 -51.8188 85.8731 -28.0602 10.2036 -17.2615 -2.8027 32.4012 -1.65457 -1.61483 -0.101537 -5.11761 4.24268 0.323795 -4.75359 -20.7421 0.506279 4.45666 
-58.1936 99.4077 -18.7416 117.845 -84.1548 119.27 -176.065 0.0977823 88.1009 -11.4285 17.916 1.75054 59.4912 4.69991 12.5184 34.1235 -0.622559 0.000169999 177.243 4.70831 92.396 -19.8787 -1.94332 -0.394246 65.7169 6.00928 15.7879 19.7128 2.48824 4.73188 -0.0751782 7.02619 -90.2104 12.8209 -0.249941 -0.390735 1.14992 -0.266901 -0.379364 -21.3848 -0.120964 -0.449062 -1.37217 -0.120957 -0.449055 100.643 -55.083 -84.4046 29.5579 -7.4101 -6.82534 -1.68367 -7.60156 -13.3074 -12.7818 -0.777375 1.93695 -85.151 -51.6314 85.9847 -28.7637 9.32173 -17.714 -2.75652 33.5286 -0.638669 -1.38161 -0.101475 -5.49907 5.31464 0.254145 -5.43032 -21.973 0.417725 5.35726 
-58.2394 99.3815 -18.682 116.87 -84.1515 118.32 -176.08 0.0962222 88.1077 -11.3691 17.677 1.78381 59.7632 4.91135 12.4671 32.802 -0.536338 -0.699022 177.356 4.69997 92.4804 -19.7196 -1.4287 -0.490064 65.5194 6.34971 16.3454 19.6843 2.37275 3.17367 -0.0898996 7.02816 -90.2048 12.8169 -0.276538 -0.376388 1.14598 -0.292836 -0.363861 -21.3888 -0.150638 -0.441882 -1.37619 -0.150632 -0.441882 100.592 -55.1476 -84.4768 29.6041 -7.53906 -6.84741 -1.57398 -7.41026 -13.2958 -13.1352 -0.821722 2.14353 -84.9755 -51.5117 86.2306 -28.8635 9.38604 -17.7155 -2.69317 33.6961 -0.691181 -1.25733 -0.101747 -5.51934 5.15622 0.222832 -5.6833 -21.7159 0.4032 5.57703 
-58.2635 99.3621 -18.6527 115.125 -84.0729 116.565 -176.302 0.0671254 88.011 -11.1161 17.8009 1.96008 59.5801 4.89975 12.5755 34.7223 -0.780176 -0.761187 177.309 4.98384 92.4579 -20.111 -0.617828 -0.479685 65.6188 6.66424 17.0219 19.6008 2.53411 5.0465 -0.103946 7.01863 -90.2148 12.8359 -0.309272 -0.39235 1.16494 -0.326239 -0.378364 -21.3699 -0.177055 -0.46716 -1.35721 -0.177059 -0.467167 100.386 -54.9827 -84.7846 29.8118 -7.34867 -6.63094 -1.65557 -7.50655 -13.3713 -13.1515 -0.838539 2.28634 -85.1024 -51.8809 86.0885 -28.3856 9.53489 -17.6764 -2.88973 33.3904 -0.706621 -1.07665 -0.102539 -5.57673 4.50766 0.142598 -5.60972 -20.9173 0.262857 5.95089 
-58.3174 99.3637 -18.6206 115.507 -83.9944 116.954 -176.204 0.00215651 88.0698 -11.1819 18.0673 1.90963 59.5713 4.9723 12.7727 35.3268 -0.869681 -0.87787 177.409 4.93687 92.5647 -20.192 -0.128648 -0.582553 65.7203 6.62465 17.2907 19.7236 2.49889 4.88411 -0.114453 7.05026 -90.2071 12.7727 -0.326299 -0.375123 1.10175 -0.342491 -0.360402 -21.4331 -0.198481 -0.455849 -1.42048 -0.198474 -0.455838 100.359 -55.1187 -84.8197 29.6981 -7.61688 -6.69632 -1.4851 -7.19229 -13.3051 -13.4014 -0.823408 2.00647 -84.9956 -51.7764 86.2335 -28.5057 9.4132 -17.7573 -2.7656 33.324 -0.75327 -1.25184 -0.103071 -6.01184 4.68656 0.17591 -5.33254 -21.0893 0.328848 5.39366 
-58.4324 99.3187 -18.5736 116.702 -83.8365 118.127 -175.893 -0.394293 88.2767 -10.7924 18.4859 1.71236 59.7173 5.24769 13.0383 34.7754 -0.771403 -0.555177 177.283 5.05826 92.5617 -20.7998 0.606999 -0.49682 65.5835 6.91031 17.7949 20.1951 2.38623 4.61415 -0.109289 7.10637 -90.2034 12.6605 -0.314114 -0.369565 0.989544 -0.330073 -0.355388 -21.5453 -0.188528 -0.446889 -1.53267 -0.188526 -0.446883 100.43 -54.9691 -84.72 30.0912 -7.35965 -6.70999 -1.66453 -7.45036 -13.4812 -13.3829 -0.839462 2.16103 -85.1753 -51.7384 85.9622 -28.595 9.17343 -17.9388 -2.71506 33.4331 -0.554079 -1.50866 -0.102723 -6.29896 5.32853 0.0314073 -5.84055 -21.9643 0.174243 5.9921 
-58.5964 99.2459 -18.5311 117.432 -83.6809 118.812 -175.592 0.248212 88.5049 -12.2901 18.9098 1.51652 60.0669 5.18328 13.0588 33.7013 -0.582886 -0.116929 177.45 5.25759 92.7832 -21.5481 0.131284 -0.590171 65.8731 6.1764 17.1199 20.2395 2.39477 4.79877 -0.113053 7.14298 -90.1808 12.5874 -0.310715 -0.324947 0.916479 -0.324711 -0.31096 -21.6185 -0.198697 -0.403305 -1.60585 -0.198693 -0.403305 100.441 -55.2083 -84.6962 29.8956 -7.27625 -6.55947 -1.96841 -8.03099 -13.7684 -12.7374 -0.781164 1.99971 -85.2069 -51.7238 85.9135 -28.3113 9.34993 -18.0624 -2.89597 33.2837 -0.507688 -1.792 -0.0989554 -6.04009 4.85631 0.0148 -6.01524 -21.249 0.221747 5.86994 
-58.8363 99.2148 -18.5095 119.605 -83.3453 120.878 -175.169 0.155294 88.8105 -12.7208 19.2128 1.24835 60.1576 5.07868 12.9667 34.3927 -0.71152 -0.519479 177.201 5.33342 92.8332 -22.4525 -1.04919 -0.274988 65.9238 5.1171 15.359 22.4064 1.97826 4.71506 -0.154861 7.22952 -90.1367 12.4144 -0.372651 -0.230422 0.743484 -0.382423 -0.213802 -21.7918 -0.286171 -0.331763 -1.77914 -0.286172 -0.331767 100.515 -55.297 -84.5854 29.8703 -7.44956 -6.81567 -2.05902 -8.12343 -13.8036 -12.0862 -0.701181 1.61232 -85.1021 -51.3843 86.026 -28.4834 9.28748 -18.2024 -2.85572 33.3661 -0.437844 -1.09037 -0.113576 -6.4293 5.28962 0.108758 -5.73235 -21.7427 0.363914 5.20026 
-59.1576 99.0797 -18.5529 120.978 -82.9181 122.25 -175.094 0.100123 88.9736 -13.1583 20.1154 1.39911 60.3107 5.40605 13.6001 37.1559 -1.14629 -1.16914 177.269 6.04948 93.0765 -24.2101 0.450669 -0.375061 65.1816 5.75662 16.2262 23.7477 1.8378 5.73972 -0.219513 7.31866 -90.081 12.2364 -0.474607 -0.108601 0.565537 -0.478919 -0.087616 -21.9702 -0.42002 -0.246223 -1.9575 -0.42002 -0.246223 100.539 -55.561 -84.5437 29.7845 -7.96593 -6.83941 -1.72833 -7.41759 -14.2533 -13.2938 -0.843957 2.2573 -85.2391 -50.9974 85.7718 -28.42 9.54894 -17.9781 -2.66885 33.4631 -0.98975 -1.77405 -0.0989783 -6.02076 5.10841 0.0999203 -6.3248 -21.3188 0.439512 5.43735 
-59.6447 98.883 -18.675 121.412 -82.8829 122.943 -174.346 0.95239 89.7834 -14.8811 20.3335 1.09505 61.3206 5.71825 13.082 34.8239 -0.571809 1.05166 177.054 6.94553 93.3655 -25.7711 1.52227 -0.0454677 64.9402 6.19523 17.7386 23.1619 1.97823 6.04945 -0.263726 7.40694 -90.0419 12.0601 -0.544083 -0.0241031 0.38921 -0.544615 -0.000134917 -22.1468 -0.511693 -0.186517 -2.13412 -0.511681 -0.186511 100.814 -55.7304 -84.1382 29.8062 -8.16484 -7.12297 -1.86572 -7.40751 -14.8431 -13.4947 -0.822798 1.95033 -85.1981 -50.4644 85.7644 -28.5009 9.5558 -18.1781 -2.72232 32.4312 -0.779879 -1.02647 -0.118141 -6.80006 5.15617 -0.252595 -7.45458 -20.6786 0.157475 6.64334 
-60.2011 98.6714 -18.7885 122.975 -82.8719 124.542 -174.206 1.99393 90.2841 -17.0048 20.0754 1.24883 62.0685 5.75326 12.5472 36.0093 -0.856606 -0.109339 176.195 7.65927 93.2113 -27.334 0.678867 0.759182 65.0563 5.69152 17.7874 23.2039 2.00252 6.31881 -0.325086 7.52273 -89.9498 11.8291 -0.622798 0.166488 0.158264 -0.614868 0.19373 -22.3781 -0.644045 -0.0283863 -2.36545 -0.644046 -0.0284019 100.896 -56.0662 -84.0117 29.6628 -8.42287 -7.2928 -2.22843 -8.05033 -15.8342 -13.824 -0.924343 2.64894 -85.2797 -50.0527 85.587 -28.5219 9.38458 -18.2466 -2.5622 32.5387 -0.807414 -0.436713 -0.12538 -6.43174 5.29759 -0.516597 -8.60994 -20.2806 0.0163169 7.5385 
-60.8561 98.4046 -19.006 127.708 -83.1421 129.622 -173.815 3.03076 91.0286 -19.3838 20.4856 1.31475 62.779 6.01016 12.8313 38.4999 -1.17921 -0.304624 174.227 8.35859 92.5859 -29.2781 1.22468 2.15694 64.8989 6.76976 21.0546 25.3291 1.38642 4.43465 -0.349471 7.67618 -89.8672 11.5225 -0.633092 0.329476 -0.148329 -0.617978 0.357012 -22.6846 -0.702839 0.123965 -2.67201 -0.702847 0.123956 101.11 -56.0699 -83.7024 29.8965 -8.2515 -7.68131 -2.94435 -8.89721 -16.7128 -12.2882 -0.760019 2.06951 -85.5 -49.659 85.1999 -28.0171 9.29434 -18.2891 -2.36706 32.4579 -1.1966 -0.668099 -0.10863 -5.58688 5.25215 -0.738206 -9.74042 -19.2268 -0.0627532 8.57615 
-61.5418 97.9968 -19.281 126.019 -83.8417 128.401 -173.835 5.49822 91.6353 -22.6858 19.3163 1.61788 64.0709 6.16038 12.3019 36.9646 -1.12026 -1.20453 171.356 9.69507 91.6024 -31.2783 2.53318 3.7731 65.6422 8.27205 26.4657 35.2348 0.53091 9.35234 -0.378965 7.72241 -89.7962 11.4304 -0.658837 0.472608 -0.240507 -0.637389 0.501138 -22.7767 -0.770418 0.252742 -2.76409 -0.770409 0.252747 101.281 -56.2166 -83.4516 29.6607 -9.13692 -7.72449 -2.77564 -7.84499 -17.8262 -12.8111 -0.748121 1.64887 -85.502 -49.3156 85.1494 -27.3721 9.30791 -18.8942 -3.18638 31.5798 0.0722325 -0.356842 -0.142375 -7.45761 5.33579 -0.835435 -9.83468 -19.0886 -0.0861364 8.30311 
-62.1647 97.6521 -19.4728 131.321 -84.9035 134.19 -173.497 6.9748 92.468 -24.9031 18.999 1.63178 64.8522 6.28463 12.3603 38.6146 -1.20083 -0.368256 168.245 11.295 90.1599 -34.2049 2.88885 5.16493 64.4229 10.3219 31.1407 41.1827 1.12599 15.2348 -0.295743 7.77709 -89.7477 11.3207 -0.470914 0.549425 -0.350325 -0.446273 0.569611 -22.8857 -0.614265 0.382494 -2.87302 -0.614263 0.382496 101.244 -56.1462 -83.5069 29.601 -9.25963 -7.08808 -3.6794 -9.23322 -19.3761 -13.259 -0.791634 1.80243 -85.6919 -49.367 84.8673 -26.2726 9.87794 -19.4224 -3.68193 30.8749 -0.0192635 0.385573 -0.125559 -5.65488 4.56531 -0.759386 -9.89913 -17.8606 -0.0234958 8.6821 
-62.8232 97.6083 -19.4204 136.313 -85.7261 139.635 -173.143 7.43025 93.2768 -25.165 18.8454 1.65372 64.8968 6.25378 12.4897 39.0728 -1.14281 0.366696 165.745 13.0375 88.3343 -37.9731 2.19355 6.12393 65.2488 9.80246 30.3345 41.1205 1.62581 16.8418 -0.252874 7.83418 -89.7136 11.2062 -0.370003 0.606599 -0.464847 -0.342948 0.622285 -22.9997 -0.53521 0.467356 -2.98705 -0.535207 0.467349 101.104 -55.8311 -83.7145 29.4556 -9.29551 -6.78074 -4.26325 -9.91149 -20.2291 -12.9671 -0.718114 1.28091 -85.5821 -49.2959 85.0246 -25.6293 9.73123 -20.0909 -3.68635 31.9895 -0.00596363 0.0452631 -0.119537 -5.65638 4.1584 -0.710791 -9.48118 -17.1688 -0.0243747 8.62301 
-63.6015 97.5881 -19.5396 143.535 -86.386 147.145 -172.961 7.79202 93.9147 -25.2652 18.0109 1.78995 64.9424 6.05218 12.1652 39.6852 -1.20556 0.410721 164.581 14.4399 86.1848 -40.6786 3.02755 5.92291 65.3667 9.16835 29.3467 40.3516 0.693196 12.9957 -0.196607 7.84151 -89.6922 11.1911 -0.248176 0.637003 -0.479941 -0.219893 0.647296 -23.0143 -0.428149 0.532964 -3.0017 -0.428139 0.532969 101.116 -55.3871 -83.7044 29.1434 -9.31577 -6.17256 -4.31777 -9.85352 -20.6029 -13.2199 -0.720854 1.18388 -85.5416 -49.8706 85.166 -24.6728 9.1925 -20.2943 -3.51418 32.1218 -0.00621622 -0.382409 -0.122469 -6.20936 3.38825 -0.524797 -8.74818 -16.747 0.0337083 8.34368 
-64.4072 97.7413 -19.3025 149.914 -86.6717 154.274 -172.823 7.64261 94.92 -24.9754 17.3811 2.32313 64.7347 5.75414 11.6441 40.2433 -1.23112 0.63742 164.288 14.4096 84.0929 -41.1002 4.68436 5.2981 64.8291 9.04134 28.8122 35.797 0.912965 11.5429 -0.152778 7.85867 -89.7081 11.1566 -0.168409 0.597473 -0.51444 -0.141942 0.604302 -23.0488 -0.340185 0.519242 -3.03616 -0.340185 0.519239 100.97 -55.1888 -83.9222 28.7428 -8.78926 -5.68743 -4.1243 -9.18048 -20.2287 -12.3606 -0.607868 0.551521 -85.3424 -49.6814 85.4421 -24.3874 9.02567 -20.3446 -3.21105 32.8599 -0.282969 -0.532468 -0.139328 -7.40038 2.851 -0.38911 -8.94898 -16.6334 0.141272 8.58791 
